<svg width="25" height="25" viewBox="0 0 25 25" fill="none" xmlns="http://www.w3.org/2000/svg">
<path d="M10.1501 1.5625C8.86841 1.5625 7.8125 2.61841 7.8125 3.90015V4.6875H3.125V6.25H4.6875V19.5312C4.6875 20.8191 5.74341 21.875 7.03125 21.875H16.4062C17.6941 21.875 18.75 20.8191 18.75 19.5312V6.25H20.3125V4.6875H15.625V3.90015C15.625 2.61841 14.5691 1.5625 13.2874 1.5625H10.1501ZM10.1501 3.125H13.2874C13.7268 3.125 14.0625 3.46069 14.0625 3.90015V4.6875H9.375V3.90015C9.375 3.46069 9.71069 3.125 10.1501 3.125ZM6.25 6.25H17.1875V19.5312C17.1875 19.9707 16.8457 20.3125 16.4062 20.3125H7.03125C6.5918 20.3125 6.25 19.9707 6.25 19.5312V6.25ZM7.8125 7.8125V18.75H9.375V7.8125H7.8125ZM10.9375 7.8125V18.75H12.5V7.8125H10.9375ZM14.0625 7.8125V18.75H15.625V7.8125H14.0625Z" fill="#5B636B"/>
</svg>
