<svg width="24" height="23" viewBox="0 0 24 23" fill="none" xmlns="http://www.w3.org/2000/svg">
<path d="M4.85168 19.3752C7.41835 18.3252 9.06835 17.4502 9.80168 16.7502C10.9017 15.7002 7.60168 15.7002 7.60168 10.4502C7.60168 6.9502 9.06835 5.2002 12.0017 5.2002C14.935 5.2002 16.4017 6.9502 16.4017 10.4502C16.4017 15.7002 13.1017 15.7002 14.2017 16.7502C14.935 17.4502 16.585 18.3252 19.1517 19.3752" stroke="white" stroke-linecap="round"/>
<path d="M12 22C18.0751 22 23 17.299 23 11.5C23 5.70101 18.0751 1 12 1C5.92487 1 1 5.70101 1 11.5C1 17.299 5.92487 22 12 22Z" stroke="white" stroke-linecap="square"/>
</svg>
