<svg width="36" height="37" viewBox="0 0 36 37" fill="none" xmlns="http://www.w3.org/2000/svg">
<path d="M24.8331 14.6141C24.9332 14.2739 24.8331 14.0244 24.36 14.0244H22.7925C22.3937 14.0244 22.2114 14.2403 22.1113 14.4773C22.1113 14.4773 21.3144 16.4667 20.1851 17.7567C19.8205 18.132 19.654 18.2506 19.4553 18.2506C19.3559 18.2506 19.2115 18.132 19.2115 17.7918V14.6141C19.2115 14.2059 19.0965 14.0244 18.7641 14.0244H16.3011C16.0523 14.0244 15.9022 14.2132 15.9022 14.3932C15.9022 14.7795 16.4669 14.8688 16.5248 15.9575V18.3193C16.5248 18.8366 16.434 18.931 16.2339 18.931C15.7028 18.931 14.4105 16.9343 13.6436 14.6486C13.4942 14.2044 13.3434 14.0252 12.9431 14.0252H11.3764C10.9282 14.0252 10.8389 14.241 10.8389 14.478C10.8389 14.9039 11.3699 17.0111 13.3126 19.798C14.6078 21.7011 16.4311 22.7327 18.0922 22.7327C19.0879 22.7327 19.2108 22.5037 19.2108 22.1086V20.6702C19.2108 20.2121 19.3059 20.12 19.6211 20.12C19.8527 20.12 20.2515 20.24 21.1814 21.1567C22.2436 22.244 22.4194 22.732 23.0162 22.732H24.583C25.0304 22.732 25.2541 22.503 25.1255 22.0508C24.9847 21.6009 24.4772 20.946 23.8039 20.1712C23.4379 19.7292 22.8911 19.2537 22.7246 19.0159C22.4923 18.7093 22.5595 18.5739 22.7246 18.3018C22.7253 18.3025 24.6344 15.55 24.8331 14.6141Z" fill="white"/>
<path d="M18 34.757C26.8366 34.757 34 27.4241 34 18.3785C34 9.3329 26.8366 2 18 2C9.16344 2 2 9.3329 2 18.3785C2 27.4241 9.16344 34.757 18 34.757Z" stroke="white" stroke-width="3.21782"/>
</svg>
